<svg width="32" height="32" viewBox="0 0 32 32" fill="none" xmlns="http://www.w3.org/2000/svg">
<g id="icon-park-outline:blockchain">
<g id="Group">
<path id="Vector" d="M26.6663 20.0008V10.0008L18.333 5.31348M13.6663 5.31348L5.33301 10.0008V20.0008M7.33301 23.1261L15.9997 28.0008L21.333 25.0008L24.6663 23.1255M15.9997 11.3341L17.9997 12.5008L19.9997 13.6675V18.3341L17.9997 19.5008L15.9997 20.6675L13.9997 19.5008L11.9997 18.3341V13.6675L13.9997 12.5008L15.9997 11.3341ZM15.9997 11.3341V6.66748M19.9997 18.0008L24.6663 20.6675M11.9997 18.0008L7.33301 20.6675" stroke="white" stroke-width="4" stroke-linecap="round" stroke-linejoin="round"/>
<path id="Vector_2" d="M16 6.66699C17.1046 6.66699 18 5.77156 18 4.66699C18 3.56242 17.1046 2.66699 16 2.66699C14.8954 2.66699 14 3.56242 14 4.66699C14 5.77156 14.8954 6.66699 16 6.66699Z" stroke="white" stroke-width="4" stroke-linecap="round" stroke-linejoin="round"/>
<path id="Vector_3" d="M5.33301 24C6.43758 24 7.33301 23.1046 7.33301 22C7.33301 20.8954 6.43758 20 5.33301 20C4.22844 20 3.33301 20.8954 3.33301 22C3.33301 23.1046 4.22844 24 5.33301 24Z" stroke="white" stroke-width="4" stroke-linecap="round" stroke-linejoin="round"/>
<path id="Vector_4" d="M26.666 24C27.7706 24 28.666 23.1046 28.666 22C28.666 20.8954 27.7706 20 26.666 20C25.5614 20 24.666 20.8954 24.666 22C24.666 23.1046 25.5614 24 26.666 24Z" stroke="white" stroke-width="4" stroke-linecap="round" stroke-linejoin="round"/>
</g>
</g>
</svg>
