<svg width="32" height="32" viewBox="0 0 32 32" fill="none" xmlns="http://www.w3.org/2000/svg">
<g id="eos-icons:software">
<path id="Vector" d="M18.6663 24.427C17.2121 23.7241 15.9632 22.6588 15.0397 21.3337H3.99967V5.33366H27.9997V8.34699C29.0791 9.10569 29.9876 10.0822 30.6663 11.2137V5.33366C30.6663 4.62641 30.3854 3.94814 29.8853 3.44804C29.3852 2.94794 28.7069 2.66699 27.9997 2.66699H3.99967C3.29243 2.66699 2.61415 2.94794 2.11406 3.44804C1.61396 3.94814 1.33301 4.62641 1.33301 5.33366V21.3337C1.33301 22.0409 1.61396 22.7192 2.11406 23.2193C2.61415 23.7194 3.29243 24.0003 3.99967 24.0003H13.333V26.667H10.6663V29.3337H21.333V26.667H18.6663V24.427Z" fill="white"/>
<path id="Vector_2" d="M22.667 8C21.0847 8 19.538 8.46919 18.2224 9.34824C16.9068 10.2273 15.8815 11.4767 15.276 12.9385C14.6705 14.4003 14.512 16.0089 14.8207 17.5607C15.1294 19.1126 15.8913 20.538 17.0101 21.6569C18.129 22.7757 19.5544 23.5376 21.1063 23.8463C22.6581 24.155 24.2667 23.9965 25.7285 23.391C27.1903 22.7855 28.4397 21.7602 29.3188 20.4446C30.1978 19.129 30.667 17.5823 30.667 16C30.667 13.8783 29.8241 11.8434 28.3238 10.3431C26.8236 8.84285 24.7887 8 22.667 8ZM22.667 18C22.2714 18 21.8848 17.8827 21.5559 17.6629C21.227 17.4432 20.9706 17.1308 20.8192 16.7654C20.6679 16.3999 20.6283 15.9978 20.7054 15.6098C20.7826 15.2219 20.9731 14.8655 21.2528 14.5858C21.5325 14.3061 21.8889 14.1156 22.2768 14.0384C22.6648 13.9613 23.0669 14.0009 23.4324 14.1522C23.7978 14.3036 24.1102 14.56 24.3299 14.8889C24.5497 15.2178 24.667 15.6044 24.667 16C24.667 16.5304 24.4563 17.0391 24.0812 17.4142C23.7061 17.7893 23.1974 18 22.667 18Z" fill="white"/>
</g>
</svg>
