<svg width="25" height="24" viewBox="0 0 25 24" fill="none" xmlns="http://www.w3.org/2000/svg">
<path fill-rule="evenodd" clip-rule="evenodd" d="M17.3945 9C17.3945 6.24 15.1545 4 12.3945 4C9.63453 4 7.39453 6.24 7.39453 9C7.39453 11.85 10.3145 16.21 12.3945 18.88C14.5145 16.19 17.3945 11.88 17.3945 9ZM9.89453 9C9.89453 7.62 11.0145 6.5 12.3945 6.5C13.7745 6.5 14.8945 7.62 14.8945 9C14.8945 10.38 13.7745 11.5 12.3945 11.5C11.0145 11.5 9.89453 10.38 9.89453 9Z" fill="white"/>
<path fill-rule="evenodd" clip-rule="evenodd" d="M19.3945 9C19.3945 14.25 12.3945 22 12.3945 22C12.3945 22 5.39453 14.25 5.39453 9C5.39453 5.13 8.52453 2 12.3945 2C16.2645 2 19.3945 5.13 19.3945 9ZM12.3945 11.5C11.0138 11.5 9.89453 10.3807 9.89453 9C9.89453 7.61929 11.0138 6.5 12.3945 6.5C13.7752 6.5 14.8945 7.61929 14.8945 9C14.8945 10.3807 13.7752 11.5 12.3945 11.5Z" fill="white"/>
</svg>
