<svg width="25" height="24" viewBox="0 0 25 24" fill="none" xmlns="http://www.w3.org/2000/svg">
<g id="Social / share">
<g id="Outlined / Social / share">
<path id="&#240;&#159;&#148;&#185; Icon Color" fill-rule="evenodd" clip-rule="evenodd" d="M18.2734 16.08C17.5134 16.08 16.8334 16.38 16.3134 16.85L9.18344 12.7C9.23344 12.47 9.27344 12.24 9.27344 12C9.27344 11.76 9.23344 11.53 9.18344 11.3L16.2334 7.19C16.7734 7.69 17.4834 8 18.2734 8C19.9334 8 21.2734 6.66 21.2734 5C21.2734 3.34 19.9334 2 18.2734 2C16.6134 2 15.2734 3.34 15.2734 5C15.2734 5.24 15.3134 5.47 15.3634 5.7L8.31344 9.81C7.77344 9.31 7.06344 9 6.27344 9C4.61344 9 3.27344 10.34 3.27344 12C3.27344 13.66 4.61344 15 6.27344 15C7.06344 15 7.77344 14.69 8.31344 14.19L15.4334 18.35C15.3834 18.56 15.3534 18.78 15.3534 19C15.3534 20.61 16.6634 21.92 18.2734 21.92C19.8834 21.92 21.1934 20.61 21.1934 19C21.1934 17.39 19.8834 16.08 18.2734 16.08ZM18.2734 4C18.8234 4 19.2734 4.45 19.2734 5C19.2734 5.55 18.8234 6 18.2734 6C17.7234 6 17.2734 5.55 17.2734 5C17.2734 4.45 17.7234 4 18.2734 4ZM6.27344 13C5.72344 13 5.27344 12.55 5.27344 12C5.27344 11.45 5.72344 11 6.27344 11C6.82344 11 7.27344 11.45 7.27344 12C7.27344 12.55 6.82344 13 6.27344 13ZM18.2734 20.02C17.7234 20.02 17.2734 19.57 17.2734 19.02C17.2734 18.47 17.7234 18.02 18.2734 18.02C18.8234 18.02 19.2734 18.47 19.2734 19.02C19.2734 19.57 18.8234 20.02 18.2734 20.02Z" fill="#1F6256"/>
</g>
</g>
</svg>
