<svg width="25" height="24" viewBox="0 0 25 24" fill="none" xmlns="http://www.w3.org/2000/svg">
<g id="Social / share">
<g id="Outlined / Social / share">
<path id="&#240;&#159;&#148;&#185; Icon Color" fill-rule="evenodd" clip-rule="evenodd" d="M18.2383 16.08C17.4783 16.08 16.7983 16.38 16.2783 16.85L9.14828 12.7C9.19828 12.47 9.23828 12.24 9.23828 12C9.23828 11.76 9.19828 11.53 9.14828 11.3L16.1983 7.19C16.7383 7.69 17.4483 8 18.2383 8C19.8983 8 21.2383 6.66 21.2383 5C21.2383 3.34 19.8983 2 18.2383 2C16.5783 2 15.2383 3.34 15.2383 5C15.2383 5.24 15.2783 5.47 15.3283 5.7L8.27828 9.81C7.73828 9.31 7.02828 9 6.23828 9C4.57828 9 3.23828 10.34 3.23828 12C3.23828 13.66 4.57828 15 6.23828 15C7.02828 15 7.73828 14.69 8.27828 14.19L15.3983 18.35C15.3483 18.56 15.3183 18.78 15.3183 19C15.3183 20.61 16.6283 21.92 18.2383 21.92C19.8483 21.92 21.1583 20.61 21.1583 19C21.1583 17.39 19.8483 16.08 18.2383 16.08ZM18.2383 4C18.7883 4 19.2383 4.45 19.2383 5C19.2383 5.55 18.7883 6 18.2383 6C17.6883 6 17.2383 5.55 17.2383 5C17.2383 4.45 17.6883 4 18.2383 4ZM6.23828 13C5.68828 13 5.23828 12.55 5.23828 12C5.23828 11.45 5.68828 11 6.23828 11C6.78828 11 7.23828 11.45 7.23828 12C7.23828 12.55 6.78828 13 6.23828 13ZM18.2383 20.02C17.6883 20.02 17.2383 19.57 17.2383 19.02C17.2383 18.47 17.6883 18.02 18.2383 18.02C18.7883 18.02 19.2383 18.47 19.2383 19.02C19.2383 19.57 18.7883 20.02 18.2383 20.02Z" fill="white"/>
</g>
</g>
</svg>
