<svg width="32" height="32" viewBox="0 0 32 32" fill="none" xmlns="http://www.w3.org/2000/svg">
<g id="mdi:salesforce">
<path id="Vector" d="M24.5063 8.49302C23.573 8.49302 22.7597 8.77302 21.9597 9.03969C21.0263 7.42635 19.2797 6.35969 17.3997 6.35969C15.933 6.35969 14.5997 7.02635 13.653 7.95969C12.5863 6.62635 10.973 5.67969 9.10634 5.67969C5.99967 5.67969 3.33301 8.22635 3.33301 11.333C3.33301 12.1197 3.61301 12.9197 3.87967 13.7197C3.11167 14.1407 2.47043 14.7597 2.02258 15.5123C1.57474 16.265 1.33663 17.1239 1.33301 17.9997C1.33301 20.6664 3.47967 22.9597 6.15967 22.9597C6.55967 22.9597 6.95967 22.9597 7.22634 22.8264C7.75967 24.8397 9.77301 26.3197 12.1863 26.3197C14.453 26.3197 16.333 24.973 16.9997 23.093C17.6797 23.373 18.3463 23.6397 19.013 23.6397C20.7597 23.6397 22.3597 22.6664 23.1597 21.2264C23.573 21.333 23.9997 21.333 24.373 21.333C27.853 21.333 30.6663 18.5464 30.6663 14.933C30.7997 11.333 27.9997 8.49302 24.5063 8.49302Z" fill="white"/>
</g>
</svg>
