<svg xmlns="http://www.w3.org/2000/svg" width="32" height="32" viewBox="0 0 32 32" fill="none">
	<circle cx="16" cy="16" r="15.5" stroke="#00BE8E"/>
	<path d="M10.0844 21V12.296C10.0844 11.736 10.1938 11.28 10.4124 10.928C10.6311 10.576 10.9191 10.3173 11.2764 10.152C11.6391 9.98133 12.0311 9.896 12.4524 9.896C12.7138 9.896 12.9831 9.91467 13.2604 9.952C13.5378 9.98933 13.8071 10.0347 14.0684 10.088L13.7004 11.544C13.5671 11.496 13.4284 11.4587 13.2844 11.432C13.1404 11.4 13.0018 11.384 12.8684 11.384C12.7191 11.384 12.5778 11.4133 12.4444 11.472C12.3111 11.5253 12.2018 11.6213 12.1164 11.76C12.0311 11.8987 11.9884 12.088 11.9884 12.328V21H10.0844ZM8.93244 14.488V13.24H13.4124V14.488H8.93244ZM19.4794 21.224C18.9941 21.224 18.5488 21.088 18.1434 20.816C17.7434 20.544 17.4234 20.1387 17.1834 19.6C16.9434 19.056 16.8234 18.376 16.8234 17.56H17.3994C17.3994 17.9493 17.4874 18.2907 17.6634 18.584C17.8394 18.8773 18.0661 19.1067 18.3434 19.272C18.6208 19.432 18.9088 19.512 19.2074 19.512C19.5754 19.512 19.9034 19.4107 20.1914 19.208C20.4794 19.0053 20.7061 18.7227 20.8714 18.36C21.0421 17.9973 21.1274 17.5707 21.1274 17.08C21.1274 16.6053 21.0448 16.192 20.8794 15.84C20.7141 15.4827 20.4848 15.2053 20.1914 15.008C19.9034 14.8107 19.5701 14.712 19.1914 14.712C18.8768 14.712 18.5834 14.7893 18.3114 14.944C18.0394 15.0933 17.8181 15.312 17.6474 15.6C17.4821 15.8827 17.3994 16.2267 17.3994 16.632H16.8234C16.8234 15.848 16.9354 15.1867 17.1594 14.648C17.3888 14.1093 17.7114 13.704 18.1274 13.432C18.5488 13.1547 19.0474 13.016 19.6234 13.016C20.2528 13.016 20.8234 13.184 21.3354 13.52C21.8528 13.8507 22.2634 14.3227 22.5674 14.936C22.8768 15.544 23.0314 16.2587 23.0314 17.08C23.0314 17.912 22.8714 18.64 22.5514 19.264C22.2368 19.8827 21.8101 20.3653 21.2714 20.712C20.7328 21.0533 20.1354 21.224 19.4794 21.224ZM15.5114 21V10.024H17.3994V19.08L16.7434 21H15.5114Z" fill="#00BE8E"/>
</svg>