<svg width="32" height="32" viewBox="0 0 32 32" fill="none" xmlns="http://www.w3.org/2000/svg">
<g id="fa6-brands:hubspot">
<path id="Vector" d="M16.7127 13.225C15.1439 14.7063 14.1627 16.8063 14.1627 19.1375C14.1627 20.9688 14.7689 22.6562 15.7877 24.0125L12.6939 27.125C12.4189 27.025 12.1252 26.9688 11.8189 26.9688C11.1439 26.9688 10.5127 27.2312 10.0377 27.7062C9.5627 28.1812 9.3002 28.8188 9.3002 29.4937C9.3002 30.1687 9.5627 30.8 10.0377 31.275C10.5127 31.75 11.1502 32 11.8189 32C12.4939 32 13.1252 31.7563 13.6064 31.275C14.0814 30.8 14.3439 30.1625 14.3439 29.4937C14.3439 29.2312 14.3064 28.9812 14.2252 28.7375L17.3502 25.6C18.7252 26.6562 20.4377 27.2812 22.3064 27.2812C26.8002 27.2812 30.4314 23.6375 30.4314 19.1437C30.4314 15.0687 27.4502 11.6938 23.5439 11.1V7.25C24.6377 6.7875 25.3064 5.7625 25.3064 4.56875C25.3064 2.9375 24.0002 1.575 22.3689 1.575C20.7377 1.575 19.4502 2.9375 19.4502 4.56875C19.4502 5.7625 20.1189 6.7875 21.2127 7.25V11.075C20.2627 11.2063 19.3627 11.4938 18.5439 11.925C16.8189 10.6188 11.2002 6.56875 7.9877 4.125C8.0627 3.85 8.1127 3.5625 8.1127 3.2625C8.1127 1.4625 6.64395 0 4.8377 0C3.0377 0 1.5752 1.4625 1.5752 3.2625C1.5752 5.06875 3.0377 6.53125 4.8377 6.53125C5.4502 6.53125 6.01895 6.35 6.5127 6.05625L16.7127 13.225ZM22.3064 23.45C19.9252 23.45 17.9939 21.5188 17.9939 19.1375C17.9939 16.7563 19.9252 14.825 22.3064 14.825C24.6877 14.825 26.6189 16.7563 26.6189 19.1375C26.6189 21.5188 24.6877 23.45 22.3064 23.45Z" fill="white"/>
</g>
</svg>
