<svg xmlns="http://www.w3.org/2000/svg" width="32" height="32" viewBox="0 0 32 32" fill="none">
	<circle cx="16" cy="16" r="15.5" stroke="#00BE8E"/>
	<path d="M10.9826 11.816C10.6146 11.816 10.3266 11.72 10.1186 11.528C9.91596 11.3307 9.81463 11.0587 9.81463 10.712C9.81463 10.376 9.91596 10.1093 10.1186 9.912C10.3266 9.70933 10.6146 9.608 10.9826 9.608C11.3453 9.608 11.6306 9.70933 11.8386 9.912C12.0466 10.1093 12.1506 10.376 12.1506 10.712C12.1506 11.0587 12.0466 11.3307 11.8386 11.528C11.6306 11.72 11.3453 11.816 10.9826 11.816ZM10.0386 21V13.208H11.9266V21H10.0386ZM20.4566 21V16.456C20.4566 15.88 20.318 15.4453 20.0406 15.152C19.7633 14.8587 19.4006 14.712 18.9526 14.712C18.574 14.712 18.238 14.816 17.9446 15.024C17.6566 15.232 17.43 15.5467 17.2646 15.968C17.0993 16.384 17.0166 16.904 17.0166 17.528H16.3926C16.3926 16.52 16.518 15.6827 16.7686 15.016C17.0193 14.344 17.374 13.8427 17.8326 13.512C18.2913 13.1813 18.83 13.016 19.4486 13.016C20.0886 13.016 20.622 13.16 21.0486 13.448C21.4806 13.7307 21.8033 14.1307 22.0166 14.648C22.2353 15.1653 22.3446 15.768 22.3446 16.456V21H20.4566ZM15.1286 21V13.24H16.7766L17.0166 14.776V21H15.1286Z" fill="#00BE8E"/>
</svg>