<svg width="21" height="20" viewBox="0 0 21 20" fill="none" xmlns="http://www.w3.org/2000/svg">
<path fill-rule="evenodd" clip-rule="evenodd" d="M5.84427 4.16602C5.89427 4.90768 6.01927 5.63268 6.21927 6.32435L5.21927 7.32435C4.8776 6.32435 4.66094 5.26602 4.58594 4.16602H5.84427ZM14.0625 14.1836C14.7708 14.3836 15.4958 14.5086 16.2292 14.5586V15.8003C15.1292 15.7253 14.0708 15.5086 13.0625 15.1753L14.0625 14.1836ZM6.64453 2.5H3.72786C3.26953 2.5 2.89453 2.875 2.89453 3.33333C2.89453 11.1583 9.2362 17.5 17.0612 17.5C17.5195 17.5 17.8945 17.125 17.8945 16.6667V13.7583C17.8945 13.3 17.5195 12.925 17.0612 12.925C16.0279 12.925 15.0195 12.7583 14.0862 12.45C14.0029 12.4167 13.9112 12.4083 13.8279 12.4083C13.6112 12.4083 13.4029 12.4917 13.2362 12.65L11.4029 14.4833C9.04453 13.275 7.1112 11.35 5.9112 8.99167L7.74453 7.15833C7.97786 6.925 8.04453 6.6 7.95286 6.30833C7.64453 5.375 7.47786 4.375 7.47786 3.33333C7.47786 2.875 7.10286 2.5 6.64453 2.5Z" fill="white"/>
</svg>
