<svg width="20" height="20" viewBox="0 0 20 20" fill="none" xmlns="http://www.w3.org/2000/svg">
<g id="Communication / call">
<g id="Outlined / Communication / call">
<path id="&#240;&#159;&#148;&#185; Icon Color" fill-rule="evenodd" clip-rule="evenodd" d="M5.44974 4.16602C5.49974 4.90768 5.62474 5.63268 5.82474 6.32435L4.82474 7.32435C4.48307 6.32435 4.26641 5.26602 4.19141 4.16602H5.44974ZM13.668 14.1836C14.3763 14.3836 15.1013 14.5086 15.8346 14.5586V15.8003C14.7346 15.7253 13.6763 15.5086 12.668 15.1753L13.668 14.1836ZM6.25 2.5H3.33333C2.875 2.5 2.5 2.875 2.5 3.33333C2.5 11.1583 8.84167 17.5 16.6667 17.5C17.125 17.5 17.5 17.125 17.5 16.6667V13.7583C17.5 13.3 17.125 12.925 16.6667 12.925C15.6333 12.925 14.625 12.7583 13.6917 12.45C13.6083 12.4167 13.5167 12.4083 13.4333 12.4083C13.2167 12.4083 13.0083 12.4917 12.8417 12.65L11.0083 14.4833C8.65 13.275 6.71667 11.35 5.51667 8.99167L7.35 7.15833C7.58333 6.925 7.65 6.6 7.55833 6.30833C7.25 5.375 7.08333 4.375 7.08333 3.33333C7.08333 2.875 6.70833 2.5 6.25 2.5Z" fill="#DA578D"/>
</g>
</g>
</svg>
